<?xml version="1.0" encoding="utf-8"?>
<!-- Generator: Adobe Illustrator 21.0.2, SVG Export Plug-In . SVG Version: 6.00 Build 0)  -->
<svg version="1.1" id="Layer_1" xmlns="http://www.w3.org/2000/svg" xmlns:xlink="http://www.w3.org/1999/xlink" x="0px" y="0px"
	 viewBox="0 0 25 25" style="enable-background:new 0 0 25 25;" xml:space="preserve">
<style type="text/css">
	.st0{fill:#3E8518;}
</style>
<g>
	<g>
		<path class="st0" d="M12.5,25C5.6,25,0,19.4,0,12.5C0,5.6,5.6,0,12.5,0S25,5.6,25,12.5C25,19.4,19.4,25,12.5,25z M12.5,1.7
			c-6,0-10.8,4.9-10.8,10.8s4.9,10.8,10.8,10.8c6,0,10.8-4.9,10.8-10.8C23.3,6.5,18.5,1.7,12.5,1.7z"/>
	</g>
	<g>
		<g>
			<path class="st0" d="M11.5,17.3c-0.2,0-0.4-0.1-0.6-0.2c-0.3-0.3-0.3-0.9,0-1.2l6.8-6.8c0.3-0.3,0.9-0.3,1.2,0
				c0.3,0.3,0.3,0.9,0,1.2l-6.8,6.8C11.9,17.2,11.7,17.3,11.5,17.3z"/>
		</g>
		<g>
			<path class="st0" d="M11.5,17.3c-0.2,0-0.4-0.1-0.6-0.2l-3.8-3.8c-0.3-0.3-0.3-0.9,0-1.2c0.3-0.3,0.9-0.3,1.2,0l3.8,3.8
				c0.3,0.3,0.3,0.9,0,1.2C11.9,17.2,11.7,17.3,11.5,17.3z"/>
		</g>
	</g>
</g>
</svg>
